<?xml version="1.0" encoding="utf-8"?>
<!-- Generator: Adobe Illustrator 19.2.0, SVG Export Plug-In . SVG Version: 6.00 Build 0)  -->
<svg version="1.1" id="Layer_1" xmlns="http://www.w3.org/2000/svg" xmlns:xlink="http://www.w3.org/1999/xlink" x="0px" y="0px"
	 viewBox="0 0 256 256" style="enable-background:new 0 0 256 256;" xml:space="preserve">
<style type="text/css">
	.st0{fill:#636363;}
	.st1{fill:#60C7EF;}
</style>
<rect x="22" y="24" class="st0" width="213.5" height="213.5"/>
<g>
	<path class="st1" d="M92,138V118V80.3c0-11.7-4.6-17.6-13.7-17.6c-2.3,0-4.1,0.2-5.4,0.7c-2.9,0.7-5.2,1-7,1
		c-2.3,0-4.3-0.8-5.9-2.3c-1.6-1.5-2.4-3.5-2.4-5.7c0-5.7,3.8-8.6,11.4-8.6c0.9,0,2.3,0.1,4.1,0.2l18.7,1.7c7,0.6,14.9,0.9,23.6,0.9
		c4.7,0,14.8-0.2,30.4-0.7l31.2-1c4.2-0.2,9-0.4,14.6-0.7c2.5-0.3,5.2-0.5,8.1-0.5c9.6,0,14.4,3.7,14.4,11.2c0,2.8-0.5,7.2-1.4,13.1
		c-0.9,5.9-1.4,10.3-1.4,13.3c0,2.5,0.2,5.7,0.5,9.5c0.4,3.8,0.5,7.3,0.5,10.4c0,6.5-3.3,9.7-9.8,9.7c-6.7,0-10-3.7-10-11.1
		c0-2.2,0.1-5.6,0.4-10.2c0.3-4.6,0.4-8,0.4-10.2c0-8.3-2.7-13.6-8.1-15.8c-5.4-2.2-18.3-3.3-38.5-3.3c-17.2,0-26.9,1.3-29.3,4
		c-1.8,2.1-2.7,9.3-2.7,21.8v17.6c0,4.4,0.7,7.2,2,8.2c1.4,1,5.1,1.5,11.3,1.5h8.9c11.7,0,17.6-3.8,17.6-11.4c0-1.7-0.2-4.1-0.7-7.1
		c-0.5-3-0.7-5.3-0.7-6.9c0-6,3.3-9,9.8-9c6.1,0,9.2,3.5,9.2,10.4c0,1-0.2,2.8-0.6,5.7l-1.9,12.8c-0.8,5.7-1.3,10-1.3,12.8
		c0,6.5,0.9,14.7,2.8,24.7c0.6,3.3,0.9,6.5,0.9,9.5c0,6.2-3.3,9.3-9.8,9.3c-6.1,0-9.2-3.3-9.2-10c0-1.6,0.1-4,0.4-7.1
		c0.3-3.2,0.4-5.5,0.4-7.1c0-4.9-1.5-8.1-4.6-9.5c-2-1.1-6.1-1.7-12.5-1.7h-8.4c-6.3,0-10.2,0.6-11.7,1.9c-1.4,1.3-2.2,4.7-2.2,10.4
		v28c0,7.4,0.9,12.4,2.8,15c1.9,2.6,5.5,3.9,10.7,3.9c1.3,0,3.3,0,6,0c2.7,0,4.7,0,6,0c8.3,0,12.5,2.7,12.5,8.1
		c0,2.2-0.9,4.1-2.8,5.7c-1.9,1.6-4.2,2.4-6.9,2.4c-2.9,0-7.1-0.4-12.7-1.2c-8-1.1-17-1.7-27.1-1.7c-6.5,0-13.5,0.5-20.9,1.4L73,208
		c-0.5,0-1.2,0.1-1.9,0.2c-0.7,0-1.3,0-1.6,0c-8,0-11.9-2.8-11.9-8.5c0-5.1,2.8-7.6,8.4-7.6c0.7,0,3.1,0.2,7,0.5
		c2,0.5,3.9,0.7,5.7,0.7c4.9,0,8.3-1.3,10.2-3.9c1.9-2.6,2.9-7.2,3.1-13.9V138z"/>
</g>
</svg>
